<mxfile host="Electron" modified="2023-09-10T11:25:49.711Z" agent="Mozilla/5.0 (Windows NT 10.0; Win64; x64) AppleWebKit/537.36 (KHTML, like Gecko) draw.io/21.2.1 Chrome/112.0.5615.87 Electron/24.1.2 Safari/537.36" etag="4-8qFHRsLpVyfQgGLaPK" version="21.2.1" type="device">
  <diagram id="7r9uXSOZoSnOuJ5T40fA" name="231">
    <mxGraphModel dx="1036" dy="606" grid="1" gridSize="10" guides="1" tooltips="1" connect="1" arrows="1" fold="1" page="1" pageScale="1" pageWidth="827" pageHeight="1169" math="0" shadow="0">
      <root>
        <mxCell id="0" />
        <mxCell id="1" parent="0" />
        <mxCell id="0MwpIjw5lTl2I5CWlqFq-36" value="" style="endArrow=openThin;html=1;fontFamily=Courier New;fontSize=13;endFill=0;rounded=0;edgeStyle=orthogonalEdgeStyle;exitX=0.5;exitY=1;exitDx=0;exitDy=0;" parent="1" source="9l-jP4sQHJARViQ5AN28-1" edge="1">
          <mxGeometry x="1" y="-204" width="50" height="50" relative="1" as="geometry">
            <mxPoint x="200" y="630" as="sourcePoint" />
            <mxPoint x="200" y="470" as="targetPoint" />
            <Array as="points">
              <mxPoint x="200" y="830" />
              <mxPoint x="130" y="830" />
              <mxPoint x="130" y="470" />
            </Array>
            <mxPoint x="164" y="200" as="offset" />
          </mxGeometry>
        </mxCell>
        <mxCell id="9l-jP4sQHJARViQ5AN28-1" value="Начало" style="rounded=1;whiteSpace=wrap;html=1;arcSize=50;fontFamily=Times New Roman;fontSize=13;" parent="1" vertex="1">
          <mxGeometry x="160" y="30" width="80" height="40" as="geometry" />
        </mxCell>
        <mxCell id="9l-jP4sQHJARViQ5AN28-14" value="Конец" style="rounded=1;whiteSpace=wrap;html=1;arcSize=50;fontFamily=Times New Roman;fontSize=13;" parent="1" vertex="1">
          <mxGeometry x="160" y="1020" width="80" height="40" as="geometry" />
        </mxCell>
        <mxCell id="0MwpIjw5lTl2I5CWlqFq-3" value="" style="endArrow=openThin;html=1;fontFamily=Courier New;fontSize=13;endFill=0;rounded=0;edgeStyle=orthogonalEdgeStyle;exitX=1;exitY=0.5;exitDx=0;exitDy=0;entryX=0.5;entryY=0;entryDx=0;entryDy=0;" parent="1" source="0MwpIjw5lTl2I5CWlqFq-15" target="0MwpIjw5lTl2I5CWlqFq-19" edge="1">
          <mxGeometry width="50" height="50" relative="1" as="geometry">
            <mxPoint x="755" y="250" as="sourcePoint" />
            <mxPoint x="500" y="540" as="targetPoint" />
            <Array as="points">
              <mxPoint x="320" y="550" />
            </Array>
          </mxGeometry>
        </mxCell>
        <mxCell id="0MwpIjw5lTl2I5CWlqFq-6" value="x = 0" style="rounded=0;whiteSpace=wrap;html=1;fontSize=13;fontFamily=Times New Roman;" parent="1" vertex="1">
          <mxGeometry x="160" y="80" width="80" height="40" as="geometry" />
        </mxCell>
        <mxCell id="0MwpIjw5lTl2I5CWlqFq-7" value="y = 0" style="rounded=0;whiteSpace=wrap;html=1;fontSize=13;fontFamily=Times New Roman;" parent="1" vertex="1">
          <mxGeometry x="160" y="130" width="80" height="40" as="geometry" />
        </mxCell>
        <mxCell id="0MwpIjw5lTl2I5CWlqFq-9" value="Ввод x" style="shape=parallelogram;perimeter=parallelogramPerimeter;whiteSpace=wrap;html=1;fixedSize=1;fontSize=13;fontFamily=Times New Roman;" parent="1" vertex="1">
          <mxGeometry x="150" y="180" width="100" height="40" as="geometry" />
        </mxCell>
        <mxCell id="0MwpIjw5lTl2I5CWlqFq-10" value="x == 0" style="rhombus;whiteSpace=wrap;html=1;rounded=0;strokeWidth=1;fontFamily=Times New Roman;fontSize=13;" parent="1" vertex="1">
          <mxGeometry x="160" y="240" width="80" height="40" as="geometry" />
        </mxCell>
        <mxCell id="0MwpIjw5lTl2I5CWlqFq-11" value="x == 1" style="rhombus;whiteSpace=wrap;html=1;rounded=0;strokeWidth=1;fontFamily=Times New Roman;fontSize=13;" parent="1" vertex="1">
          <mxGeometry x="160" y="300" width="80" height="40" as="geometry" />
        </mxCell>
        <mxCell id="0MwpIjw5lTl2I5CWlqFq-12" value="x == 2" style="rhombus;whiteSpace=wrap;html=1;rounded=0;strokeWidth=1;fontFamily=Times New Roman;fontSize=13;" parent="1" vertex="1">
          <mxGeometry x="160" y="360" width="80" height="40" as="geometry" />
        </mxCell>
        <mxCell id="0MwpIjw5lTl2I5CWlqFq-13" value="x == 3" style="rhombus;whiteSpace=wrap;html=1;rounded=0;strokeWidth=1;fontFamily=Times New Roman;fontSize=13;" parent="1" vertex="1">
          <mxGeometry x="160" y="420" width="80" height="40" as="geometry" />
        </mxCell>
        <mxCell id="0MwpIjw5lTl2I5CWlqFq-14" value="x == 4" style="rhombus;whiteSpace=wrap;html=1;rounded=0;strokeWidth=1;fontFamily=Times New Roman;fontSize=13;" parent="1" vertex="1">
          <mxGeometry x="160" y="480" width="80" height="40" as="geometry" />
        </mxCell>
        <mxCell id="0MwpIjw5lTl2I5CWlqFq-15" value="x == 0" style="rhombus;whiteSpace=wrap;html=1;rounded=0;strokeWidth=1;fontFamily=Times New Roman;fontSize=13;" parent="1" vertex="1">
          <mxGeometry x="160" y="530" width="80" height="40" as="geometry" />
        </mxCell>
        <mxCell id="0MwpIjw5lTl2I5CWlqFq-18" value="y = 0" style="rounded=0;whiteSpace=wrap;html=1;fontSize=13;fontFamily=Times New Roman;" parent="1" vertex="1">
          <mxGeometry x="160" y="580" width="80" height="40" as="geometry" />
        </mxCell>
        <mxCell id="0MwpIjw5lTl2I5CWlqFq-19" value="x == 1" style="rhombus;whiteSpace=wrap;html=1;rounded=0;strokeWidth=1;fontFamily=Times New Roman;fontSize=13;" parent="1" vertex="1">
          <mxGeometry x="280" y="580" width="80" height="40" as="geometry" />
        </mxCell>
        <mxCell id="0MwpIjw5lTl2I5CWlqFq-20" value="" style="endArrow=openThin;html=1;fontFamily=Courier New;fontSize=13;endFill=0;rounded=0;edgeStyle=orthogonalEdgeStyle;exitX=1;exitY=0.5;exitDx=0;exitDy=0;entryX=0.5;entryY=0;entryDx=0;entryDy=0;" parent="1" source="0MwpIjw5lTl2I5CWlqFq-19" target="0MwpIjw5lTl2I5CWlqFq-21" edge="1">
          <mxGeometry width="50" height="50" relative="1" as="geometry">
            <mxPoint x="550" y="560" as="sourcePoint" />
            <mxPoint x="730" y="600" as="targetPoint" />
            <Array as="points">
              <mxPoint x="440" y="600" />
            </Array>
          </mxGeometry>
        </mxCell>
        <mxCell id="0MwpIjw5lTl2I5CWlqFq-21" value="x == 2" style="rhombus;whiteSpace=wrap;html=1;rounded=0;strokeWidth=1;fontFamily=Times New Roman;fontSize=13;" parent="1" vertex="1">
          <mxGeometry x="400" y="630" width="80" height="40" as="geometry" />
        </mxCell>
        <mxCell id="0MwpIjw5lTl2I5CWlqFq-22" value="" style="endArrow=openThin;html=1;fontFamily=Courier New;fontSize=13;endFill=0;rounded=0;edgeStyle=orthogonalEdgeStyle;exitX=1;exitY=0.5;exitDx=0;exitDy=0;entryX=0.5;entryY=0;entryDx=0;entryDy=0;" parent="1" source="0MwpIjw5lTl2I5CWlqFq-21" target="0MwpIjw5lTl2I5CWlqFq-23" edge="1">
          <mxGeometry width="50" height="50" relative="1" as="geometry">
            <mxPoint x="790" y="610" as="sourcePoint" />
            <mxPoint x="960" y="650" as="targetPoint" />
            <Array as="points">
              <mxPoint x="560" y="650" />
            </Array>
          </mxGeometry>
        </mxCell>
        <mxCell id="0MwpIjw5lTl2I5CWlqFq-23" value="x == 3" style="rhombus;whiteSpace=wrap;html=1;rounded=0;strokeWidth=1;fontFamily=Times New Roman;fontSize=13;" parent="1" vertex="1">
          <mxGeometry x="520" y="680" width="80" height="40" as="geometry" />
        </mxCell>
        <mxCell id="0MwpIjw5lTl2I5CWlqFq-24" value="" style="endArrow=openThin;html=1;fontFamily=Courier New;fontSize=13;endFill=0;rounded=0;edgeStyle=orthogonalEdgeStyle;exitX=1;exitY=0.5;exitDx=0;exitDy=0;" parent="1" source="0MwpIjw5lTl2I5CWlqFq-23" edge="1">
          <mxGeometry width="50" height="50" relative="1" as="geometry">
            <mxPoint x="1030" y="670" as="sourcePoint" />
            <mxPoint x="200" y="810" as="targetPoint" />
            <Array as="points">
              <mxPoint x="680" y="700" />
              <mxPoint x="680" y="810" />
              <mxPoint x="200" y="810" />
            </Array>
          </mxGeometry>
        </mxCell>
        <mxCell id="0MwpIjw5lTl2I5CWlqFq-29" value="y = 4" style="rounded=0;whiteSpace=wrap;html=1;fontSize=13;fontFamily=Times New Roman;" parent="1" vertex="1">
          <mxGeometry x="640" y="730" width="80" height="40" as="geometry" />
        </mxCell>
        <mxCell id="0MwpIjw5lTl2I5CWlqFq-30" value="" style="endArrow=openThin;html=1;fontFamily=Courier New;fontSize=13;endFill=0;rounded=0;edgeStyle=orthogonalEdgeStyle;exitX=0.5;exitY=1;exitDx=0;exitDy=0;" parent="1" source="0MwpIjw5lTl2I5CWlqFq-21" edge="1">
          <mxGeometry x="1" y="-204" width="50" height="50" relative="1" as="geometry">
            <mxPoint x="380" y="980" as="sourcePoint" />
            <mxPoint x="200" y="740" as="targetPoint" />
            <Array as="points">
              <mxPoint x="440" y="740" />
            </Array>
            <mxPoint x="164" y="200" as="offset" />
          </mxGeometry>
        </mxCell>
        <mxCell id="0MwpIjw5lTl2I5CWlqFq-31" value="" style="endArrow=openThin;html=1;fontFamily=Courier New;fontSize=13;endFill=0;rounded=0;edgeStyle=orthogonalEdgeStyle;exitX=0.5;exitY=1;exitDx=0;exitDy=0;" parent="1" source="0MwpIjw5lTl2I5CWlqFq-23" edge="1">
          <mxGeometry x="1" y="-204" width="50" height="50" relative="1" as="geometry">
            <mxPoint x="600" y="1010" as="sourcePoint" />
            <mxPoint x="200" y="790" as="targetPoint" />
            <Array as="points">
              <mxPoint x="560" y="790" />
              <mxPoint x="200" y="790" />
            </Array>
            <mxPoint x="164" y="200" as="offset" />
          </mxGeometry>
        </mxCell>
        <mxCell id="0MwpIjw5lTl2I5CWlqFq-27" value="y = 2" style="rounded=0;whiteSpace=wrap;html=1;fontSize=13;fontFamily=Times New Roman;" parent="1" vertex="1">
          <mxGeometry x="400" y="680" width="80" height="40" as="geometry" />
        </mxCell>
        <mxCell id="0MwpIjw5lTl2I5CWlqFq-28" value="y = 3" style="rounded=0;whiteSpace=wrap;html=1;fontSize=13;fontFamily=Times New Roman;" parent="1" vertex="1">
          <mxGeometry x="520" y="730" width="80" height="40" as="geometry" />
        </mxCell>
        <mxCell id="0MwpIjw5lTl2I5CWlqFq-32" value="" style="endArrow=openThin;html=1;fontFamily=Courier New;fontSize=13;endFill=0;rounded=0;edgeStyle=orthogonalEdgeStyle;exitX=0.5;exitY=1;exitDx=0;exitDy=0;" parent="1" source="0MwpIjw5lTl2I5CWlqFq-19" edge="1">
          <mxGeometry x="1" y="-204" width="50" height="50" relative="1" as="geometry">
            <mxPoint x="339.98" y="740" as="sourcePoint" />
            <mxPoint x="200" y="690" as="targetPoint" />
            <Array as="points">
              <mxPoint x="320" y="625" />
              <mxPoint x="320" y="690" />
            </Array>
            <mxPoint x="164" y="200" as="offset" />
          </mxGeometry>
        </mxCell>
        <mxCell id="0MwpIjw5lTl2I5CWlqFq-26" value="y = 1" style="rounded=0;whiteSpace=wrap;html=1;fontSize=13;fontFamily=Times New Roman;" parent="1" vertex="1">
          <mxGeometry x="280" y="630" width="80" height="40" as="geometry" />
        </mxCell>
        <mxCell id="0MwpIjw5lTl2I5CWlqFq-37" value="" style="endArrow=openThin;html=1;fontFamily=Courier New;fontSize=13;endFill=0;rounded=0;edgeStyle=orthogonalEdgeStyle;exitX=1;exitY=0.5;exitDx=0;exitDy=0;" parent="1" source="0MwpIjw5lTl2I5CWlqFq-14" edge="1">
          <mxGeometry width="50" height="50" relative="1" as="geometry">
            <mxPoint x="280" y="500" as="sourcePoint" />
            <mxPoint x="200" y="410" as="targetPoint" />
            <Array as="points">
              <mxPoint x="730" y="500" />
              <mxPoint x="730" y="860" />
              <mxPoint x="110" y="860" />
              <mxPoint x="110" y="410" />
            </Array>
          </mxGeometry>
        </mxCell>
        <mxCell id="0MwpIjw5lTl2I5CWlqFq-38" value="" style="endArrow=openThin;html=1;fontFamily=Courier New;fontSize=13;endFill=0;rounded=0;edgeStyle=orthogonalEdgeStyle;exitX=1;exitY=0.5;exitDx=0;exitDy=0;" parent="1" source="0MwpIjw5lTl2I5CWlqFq-13" edge="1">
          <mxGeometry width="50" height="50" relative="1" as="geometry">
            <mxPoint x="250" y="450" as="sourcePoint" />
            <mxPoint x="200" y="350" as="targetPoint" />
            <Array as="points">
              <mxPoint x="750" y="440" />
              <mxPoint x="750" y="880" />
              <mxPoint x="90" y="880" />
              <mxPoint x="90" y="350" />
            </Array>
          </mxGeometry>
        </mxCell>
        <mxCell id="0MwpIjw5lTl2I5CWlqFq-39" value="" style="endArrow=openThin;html=1;fontFamily=Courier New;fontSize=13;endFill=0;rounded=0;edgeStyle=orthogonalEdgeStyle;exitX=1;exitY=0.5;exitDx=0;exitDy=0;" parent="1" source="0MwpIjw5lTl2I5CWlqFq-12" edge="1">
          <mxGeometry width="50" height="50" relative="1" as="geometry">
            <mxPoint x="250" y="400" as="sourcePoint" />
            <mxPoint x="200" y="290" as="targetPoint" />
            <Array as="points">
              <mxPoint x="770" y="380" />
              <mxPoint x="770" y="900" />
              <mxPoint x="70" y="900" />
              <mxPoint x="70" y="290" />
            </Array>
          </mxGeometry>
        </mxCell>
        <mxCell id="0MwpIjw5lTl2I5CWlqFq-40" value="" style="endArrow=openThin;html=1;fontFamily=Courier New;fontSize=13;endFill=0;rounded=0;edgeStyle=orthogonalEdgeStyle;exitX=1;exitY=0.5;exitDx=0;exitDy=0;" parent="1" source="0MwpIjw5lTl2I5CWlqFq-11" edge="1">
          <mxGeometry width="50" height="50" relative="1" as="geometry">
            <mxPoint x="250" y="350" as="sourcePoint" />
            <mxPoint x="200" y="230" as="targetPoint" />
            <Array as="points">
              <mxPoint x="790" y="320" />
              <mxPoint x="790" y="920" />
              <mxPoint x="50" y="920" />
              <mxPoint x="50" y="230" />
            </Array>
          </mxGeometry>
        </mxCell>
        <mxCell id="0MwpIjw5lTl2I5CWlqFq-41" value="" style="endArrow=openThin;html=1;fontFamily=Courier New;fontSize=13;endFill=0;rounded=0;edgeStyle=orthogonalEdgeStyle;entryX=0.5;entryY=0;entryDx=0;entryDy=0;exitX=1;exitY=0.5;exitDx=0;exitDy=0;" parent="1" source="0MwpIjw5lTl2I5CWlqFq-10" target="9l-jP4sQHJARViQ5AN28-14" edge="1">
          <mxGeometry width="50" height="50" relative="1" as="geometry">
            <mxPoint x="260" y="280" as="sourcePoint" />
            <mxPoint x="150.05999999999977" y="250" as="targetPoint" />
            <Array as="points">
              <mxPoint x="810" y="260" />
              <mxPoint x="810" y="940" />
              <mxPoint x="200" y="940" />
            </Array>
          </mxGeometry>
        </mxCell>
        <mxCell id="0MwpIjw5lTl2I5CWlqFq-34" value="Вывод у" style="shape=parallelogram;perimeter=parallelogramPerimeter;whiteSpace=wrap;html=1;fixedSize=1;fontSize=13;fontFamily=Times New Roman;" parent="1" vertex="1">
          <mxGeometry x="150" y="960" width="100" height="40" as="geometry" />
        </mxCell>
        <mxCell id="0MwpIjw5lTl2I5CWlqFq-43" value="2" style="text;html=1;strokeColor=none;fillColor=none;align=center;verticalAlign=middle;whiteSpace=wrap;rounded=0;fontFamily=Times New Roman;fontSize=13;" parent="1" vertex="1">
          <mxGeometry x="140" y="80" width="20" height="20" as="geometry" />
        </mxCell>
        <mxCell id="0MwpIjw5lTl2I5CWlqFq-44" value="Нет" style="text;html=1;strokeColor=none;fillColor=none;align=center;verticalAlign=middle;whiteSpace=wrap;rounded=0;fontFamily=Times New Roman;fontSize=13;" parent="1" vertex="1">
          <mxGeometry x="250" y="300" width="40" height="20" as="geometry" />
        </mxCell>
        <mxCell id="0MwpIjw5lTl2I5CWlqFq-45" value="Нет" style="text;html=1;strokeColor=none;fillColor=none;align=center;verticalAlign=middle;whiteSpace=wrap;rounded=0;fontFamily=Times New Roman;fontSize=13;" parent="1" vertex="1">
          <mxGeometry x="250" y="360" width="40" height="20" as="geometry" />
        </mxCell>
        <mxCell id="0MwpIjw5lTl2I5CWlqFq-46" value="Нет" style="text;html=1;strokeColor=none;fillColor=none;align=center;verticalAlign=middle;whiteSpace=wrap;rounded=0;fontFamily=Times New Roman;fontSize=13;" parent="1" vertex="1">
          <mxGeometry x="250" y="420" width="40" height="20" as="geometry" />
        </mxCell>
        <mxCell id="0MwpIjw5lTl2I5CWlqFq-47" value="Нет" style="text;html=1;strokeColor=none;fillColor=none;align=center;verticalAlign=middle;whiteSpace=wrap;rounded=0;fontFamily=Times New Roman;fontSize=13;" parent="1" vertex="1">
          <mxGeometry x="250" y="480" width="40" height="20" as="geometry" />
        </mxCell>
        <mxCell id="0MwpIjw5lTl2I5CWlqFq-48" value="Нет" style="text;html=1;strokeColor=none;fillColor=none;align=center;verticalAlign=middle;whiteSpace=wrap;rounded=0;fontFamily=Times New Roman;fontSize=13;" parent="1" vertex="1">
          <mxGeometry x="250" y="530" width="40" height="20" as="geometry" />
        </mxCell>
        <mxCell id="0MwpIjw5lTl2I5CWlqFq-49" value="Нет" style="text;html=1;strokeColor=none;fillColor=none;align=center;verticalAlign=middle;whiteSpace=wrap;rounded=0;fontFamily=Times New Roman;fontSize=13;" parent="1" vertex="1">
          <mxGeometry x="360" y="580" width="40" height="20" as="geometry" />
        </mxCell>
        <mxCell id="0MwpIjw5lTl2I5CWlqFq-50" value="Нет" style="text;html=1;strokeColor=none;fillColor=none;align=center;verticalAlign=middle;whiteSpace=wrap;rounded=0;fontFamily=Times New Roman;fontSize=13;" parent="1" vertex="1">
          <mxGeometry x="480" y="630" width="40" height="20" as="geometry" />
        </mxCell>
        <mxCell id="0MwpIjw5lTl2I5CWlqFq-51" value="Нет" style="text;html=1;strokeColor=none;fillColor=none;align=center;verticalAlign=middle;whiteSpace=wrap;rounded=0;fontFamily=Times New Roman;fontSize=13;" parent="1" vertex="1">
          <mxGeometry x="600" y="680" width="40" height="20" as="geometry" />
        </mxCell>
        <mxCell id="Nog0g2KmL9izZxiisVWh-1" value="1" style="text;html=1;strokeColor=none;fillColor=none;align=center;verticalAlign=middle;whiteSpace=wrap;rounded=0;fontFamily=Times New Roman;fontSize=13;" parent="1" vertex="1">
          <mxGeometry x="140" y="30" width="20" height="20" as="geometry" />
        </mxCell>
        <mxCell id="Nog0g2KmL9izZxiisVWh-2" value="3" style="text;html=1;strokeColor=none;fillColor=none;align=center;verticalAlign=middle;whiteSpace=wrap;rounded=0;fontFamily=Times New Roman;fontSize=13;" parent="1" vertex="1">
          <mxGeometry x="140" y="130" width="20" height="20" as="geometry" />
        </mxCell>
        <mxCell id="Nog0g2KmL9izZxiisVWh-3" value="4" style="text;html=1;strokeColor=none;fillColor=none;align=center;verticalAlign=middle;whiteSpace=wrap;rounded=0;fontFamily=Times New Roman;fontSize=13;" parent="1" vertex="1">
          <mxGeometry x="140" y="180" width="20" height="20" as="geometry" />
        </mxCell>
        <mxCell id="Nog0g2KmL9izZxiisVWh-4" value="5" style="text;html=1;strokeColor=none;fillColor=none;align=center;verticalAlign=middle;whiteSpace=wrap;rounded=0;fontFamily=Times New Roman;fontSize=13;" parent="1" vertex="1">
          <mxGeometry x="140" y="240" width="20" height="20" as="geometry" />
        </mxCell>
        <mxCell id="Nog0g2KmL9izZxiisVWh-5" value="6" style="text;html=1;strokeColor=none;fillColor=none;align=center;verticalAlign=middle;whiteSpace=wrap;rounded=0;fontFamily=Times New Roman;fontSize=13;" parent="1" vertex="1">
          <mxGeometry x="140" y="300" width="20" height="20" as="geometry" />
        </mxCell>
        <mxCell id="Nog0g2KmL9izZxiisVWh-6" value="7" style="text;html=1;strokeColor=none;fillColor=none;align=center;verticalAlign=middle;whiteSpace=wrap;rounded=0;fontFamily=Times New Roman;fontSize=13;" parent="1" vertex="1">
          <mxGeometry x="140" y="360" width="20" height="20" as="geometry" />
        </mxCell>
        <mxCell id="Nog0g2KmL9izZxiisVWh-7" value="8" style="text;html=1;strokeColor=none;fillColor=none;align=center;verticalAlign=middle;whiteSpace=wrap;rounded=0;fontFamily=Times New Roman;fontSize=13;" parent="1" vertex="1">
          <mxGeometry x="140" y="420" width="20" height="20" as="geometry" />
        </mxCell>
        <mxCell id="Nog0g2KmL9izZxiisVWh-9" value="9" style="text;html=1;strokeColor=none;fillColor=none;align=center;verticalAlign=middle;whiteSpace=wrap;rounded=0;fontFamily=Times New Roman;fontSize=13;" parent="1" vertex="1">
          <mxGeometry x="140" y="480" width="20" height="20" as="geometry" />
        </mxCell>
        <mxCell id="Nog0g2KmL9izZxiisVWh-10" value="10" style="text;html=1;strokeColor=none;fillColor=none;align=center;verticalAlign=middle;whiteSpace=wrap;rounded=0;fontFamily=Times New Roman;fontSize=13;" parent="1" vertex="1">
          <mxGeometry x="140" y="530" width="20" height="20" as="geometry" />
        </mxCell>
        <mxCell id="Nog0g2KmL9izZxiisVWh-11" value="11" style="text;html=1;strokeColor=none;fillColor=none;align=center;verticalAlign=middle;whiteSpace=wrap;rounded=0;fontFamily=Times New Roman;fontSize=13;" parent="1" vertex="1">
          <mxGeometry x="140" y="580" width="20" height="20" as="geometry" />
        </mxCell>
        <mxCell id="Nog0g2KmL9izZxiisVWh-12" value="12" style="text;html=1;strokeColor=none;fillColor=none;align=center;verticalAlign=middle;whiteSpace=wrap;rounded=0;fontFamily=Times New Roman;fontSize=13;" parent="1" vertex="1">
          <mxGeometry x="260" y="580" width="20" height="20" as="geometry" />
        </mxCell>
        <mxCell id="Nog0g2KmL9izZxiisVWh-13" value="13" style="text;html=1;strokeColor=none;fillColor=none;align=center;verticalAlign=middle;whiteSpace=wrap;rounded=0;fontFamily=Times New Roman;fontSize=13;" parent="1" vertex="1">
          <mxGeometry x="260" y="630" width="20" height="20" as="geometry" />
        </mxCell>
        <mxCell id="Nog0g2KmL9izZxiisVWh-14" value="14" style="text;html=1;strokeColor=none;fillColor=none;align=center;verticalAlign=middle;whiteSpace=wrap;rounded=0;fontFamily=Times New Roman;fontSize=13;" parent="1" vertex="1">
          <mxGeometry x="380" y="630" width="20" height="20" as="geometry" />
        </mxCell>
        <mxCell id="Nog0g2KmL9izZxiisVWh-15" value="15" style="text;html=1;strokeColor=none;fillColor=none;align=center;verticalAlign=middle;whiteSpace=wrap;rounded=0;fontFamily=Times New Roman;fontSize=13;" parent="1" vertex="1">
          <mxGeometry x="380" y="680" width="20" height="20" as="geometry" />
        </mxCell>
        <mxCell id="Nog0g2KmL9izZxiisVWh-16" value="16" style="text;html=1;strokeColor=none;fillColor=none;align=center;verticalAlign=middle;whiteSpace=wrap;rounded=0;fontFamily=Times New Roman;fontSize=13;" parent="1" vertex="1">
          <mxGeometry x="500" y="680" width="20" height="20" as="geometry" />
        </mxCell>
        <mxCell id="Nog0g2KmL9izZxiisVWh-17" value="17" style="text;html=1;strokeColor=none;fillColor=none;align=center;verticalAlign=middle;whiteSpace=wrap;rounded=0;fontFamily=Times New Roman;fontSize=13;" parent="1" vertex="1">
          <mxGeometry x="500" y="730" width="20" height="20" as="geometry" />
        </mxCell>
        <mxCell id="Nog0g2KmL9izZxiisVWh-18" value="18" style="text;html=1;strokeColor=none;fillColor=none;align=center;verticalAlign=middle;whiteSpace=wrap;rounded=0;fontFamily=Times New Roman;fontSize=13;" parent="1" vertex="1">
          <mxGeometry x="620" y="730" width="20" height="20" as="geometry" />
        </mxCell>
        <mxCell id="Nog0g2KmL9izZxiisVWh-19" value="19" style="text;html=1;strokeColor=none;fillColor=none;align=center;verticalAlign=middle;whiteSpace=wrap;rounded=0;fontFamily=Times New Roman;fontSize=13;" parent="1" vertex="1">
          <mxGeometry x="140" y="960" width="20" height="20" as="geometry" />
        </mxCell>
        <mxCell id="Nog0g2KmL9izZxiisVWh-20" value="20" style="text;html=1;strokeColor=none;fillColor=none;align=center;verticalAlign=middle;whiteSpace=wrap;rounded=0;fontFamily=Times New Roman;fontSize=13;" parent="1" vertex="1">
          <mxGeometry x="140" y="1020" width="20" height="20" as="geometry" />
        </mxCell>
      </root>
    </mxGraphModel>
  </diagram>
</mxfile>
